#!OML:ASF E:/inclinewalkrobotboard/Project1/Captureday1/Session1/subject1.ASF
:FULLY-SPECIFIED
:DEGREES
201
root 0 0 0 1.039461063406215 -3.6723413855353253 1.830421842412301
lowerback 11.978649627575507 0.8495103700886595 -0.06292194936930379
upperback -4.230561069213466 1.0787626704090587 -0.5428308633881207
thorax -11.341411890290232 0.4937988569832615 -0.7840735233628725
lowerneck -5.780469365240361 1.4864497738389444 4.564899100819743
upperneck 18.034631583850356 2.941490789628593 -8.343974354305546
head 6.589235668895272 1.0741029740854913 -3.224773423256034
rclavicle 1.9471877579267535E-16 -2.0346456793311738E-15
rhumerus 19.885560743188716 14.346795278974849 -47.73803727726524
rradius 72.22995073728708
rwrist 27.13032156725005
rhand -34.62978472976965 -57.10534461199427
rfingers 7.125020000000035
rthumb -7.78278707613944 -87.15990531912338
lclavicle -1.2281457072510397E-16 -4.486513702925523E-16
lhumerus 21.029186009485887 -12.454599023688413 45.30258271444398
lradius 70.02864510979
lwrist -22.26436033931435
lhand -44.783328504708244 -70.24686252837687
lfingers 7.125020000000026
lthumb -17.571415832438042 -40.9252074986434
rfemur -24.697259172511774 -2.3149250729184834 17.111214402899094
rtibia 54.50937551087027
rfoot -28.994349219077158 -16.654631653176846
rtoes -18.495638220852346
lfemur -25.901359319446204 2.4394369721801628 -18.063906391547462
ltibia 53.19817549241562
lfoot -30.79094549372123 -3.4574727575520923
ltoes -20.874999975674346
202
root 0 0 0 1.039496442702287 -3.672276627569297 1.830443058118066
lowerback 11.97865027882036 0.8495179473339599 -0.06294798439682642
upperback -4.230581164394758 1.0787682192729042 -0.5428455039877705
thorax -11.341434435572852 0.4938020760804768 -0.7840761484548633
lowerneck -5.780632118214088 1.486460396314348 4.564864920185672
upperneck 18.034723200424306 2.941496366755498 -8.343890696562871
head 6.589293219807202 1.0741064803099774 -3.2247414883132306
rclavicle 1.9429100890364882E-16 -2.0350686056080445E-15
rhumerus 19.885292100562506 14.346526368065692 -47.73812626481622
rradius 72.22977679149982
rwrist 27.130387906565844
rhand -34.630089508004815 -57.1056949020026
rfingers 7.125020000000035
rthumb -7.7830788561277195 -87.16025693874904
lclavicle -1.2314590981364185E-16 -4.490491365865675E-16
lhumerus 21.029071076043792 -12.454407064661996 45.302779432029475
lradius 70.02852601840068
lwrist -22.264328968781413
lhand -44.78343626227105 -70.24752145581621
lfingers 7.125020000000026
lthumb -17.571518082348128 -40.92588250098643
rfemur -24.69729354283349 -2.3149355888475074 17.11121141147124
rtibia 54.509431258585906
rfoot -28.994316492152016 -16.654644655444798
rtoes -18.49556513983466
lfemur -25.90163793702907 2.439389364652318 -18.063962532386654
ltibia 53.19828573802743
lfoot -30.79096121907635 -3.4574785822732617
ltoes -20.87438092522821
203
root 0 0 0 1.0393156688088085 -3.6727418953340183 1.8302571786681425
lowerback 11.978665145579805 0.8494581414018667 -0.06279570823167824
upperback -4.230455685635684 1.0787222316918539 -0.5427373605959791
thorax -11.341326677829503 0.4937749904305172 -0.7840375247606526
lowerneck -5.779504691643595 1.4863870748916095 4.565038418853298
upperneck 18.034092253605667 2.9414731203543276 -8.344394778105343
head 6.588900590818676 1.0740759135225257 -3.224919729500874
rclavicle 1.8382655749767883E-16 -2.026488825112313E-15
rhumerus 19.886887134026974 14.34851674367071 -47.737126989439965
rradius 72.23044833176483
rwrist 27.1290680884098
rhand -34.62553244133112 -57.09931923699444
rfingers 7.125020000000035
rthumb -7.778595570005787 -87.15359398715933
lclavicle -1.3415201995213345E-16 -4.3867630333958504E-16
lhumerus 21.030527063252364 -12.456724728378184 45.30123072242793
lradius 70.02915440842537
lwrist -22.2638515811239
lhand -44.78213897248959 -70.23663626559188
lfingers 7.125020000000026
lthumb -17.57014195530422 -40.915273757958644
rfemur -24.695901329799035 -2.313688835234823 17.111405216870544
rtibia 54.50259018800964
rfoot -28.99514149907107 -16.654431529409642
rtoes -18.49438591100497
lfemur -25.89766559324376 2.439110705027438 -18.063302162193043
ltibia 53.19360059508495
lfoot -30.79490781663874 -3.455438330843395
ltoes -20.882424065400965
204
root 0 0 0 1.039333167431686 -3.6726224340364686 1.8303372228150094
lowerback 11.978642358896725 0.8494826101371574 -0.0628223334670095
upperback -4.230488768778717 1.0787433558577144 -0.5427721319466058
thorax -11.341328155597948 0.49378752470477744 -0.7840608422287425
lowerneck -5.779828152348095 1.4864110091699883 4.565032885625945
upperneck 18.034289229549508 2.9414744165586377 -8.34430407775832
head 6.5890151287034335 1.0740917396888467 -3.224898725284056
rclavicle 2.0698017865248869E-16 -2.0347446403121786E-15
rhumerus 19.88751079722175 14.348778114170365 -47.73782523167091
rradius 72.23141021855906
rwrist 27.129759174530633
rhand -34.628426602537694 -57.104022180729146
rfingers 7.125020000000035
rthumb -7.781498377876284 -87.15854230412845
lclavicle -1.1103608951577863E-16 -4.504232125765122E-16
lhumerus 21.029525930201466 -12.455371173778678 45.30158635748946
lradius 70.02920863328045
lwrist -22.264715578169124
lhand -44.78271004137301 -70.24370642952083
lfingers 7.125020000000026
lthumb -17.570814007783298 -40.92202421992305
rfemur -24.69678693449605 -2.31471940991598 17.111224220688236
rtibia 54.508194151253946
rfoot -28.99497310050863 -16.654656519553228
rtoes -18.496585585359842
lfemur -25.89977695002877 2.439455076676582 -18.063630445530634
ltibia 53.1964189202633
lfoot -30.79171646576206 -3.457038819486789
ltoes -20.87866640614146
